<?xml version="1.0" standalone="no"?>
<!DOCTYPE svg PUBLIC "-//W3C//DTD SVG 20010904//EN"
 "http://www.w3.org/TR/2001/REC-SVG-20010904/DTD/svg10.dtd">
<svg version="1.0" xmlns="http://www.w3.org/2000/svg"
 width="500.000000pt" height="500.000000pt" viewBox="0 0 500.000000 500.000000"
 preserveAspectRatio="xMidYMid meet">
<metadata>
Created by potrace 1.15, written by Peter Selinger 2001-2017
</metadata>
<g transform="translate(0.000000,500.000000) scale(0.100000,-0.100000)"
fill="#000000" stroke="none">
<path d="M0 2500 l0 -2500 2500 0 2500 0 0 2500 0 2500 -2500 0 -2500 0 0
-2500z m3172 1099 c19 -38 78 -100 78 -83 0 6 22 21 49 33 46 22 50 22 80 7
32 -17 34 -36 4 -36 -21 0 -86 -68 -102 -108 -15 -36 -28 -39 -62 -14 -30 22
-66 39 -101 46 -16 4 -28 13 -28 20 0 8 -13 20 -30 28 -31 13 -37 40 -22 96
l7 23 48 -31 c67 -42 81 -40 52 10 -8 14 -14 31 -15 38 0 24 23 7 42 -29z
m-1094 -1332 c3 -27 12 -31 60 -27 19 1 22 -3 21 -32 0 -27 -2 -29 -8 -13 -5
11 -7 23 -5 26 2 4 -11 3 -29 0 -26 -6 -32 -12 -32 -31 0 -20 6 -26 28 -28 15
-2 27 -9 27 -15 0 -21 -17 -40 -29 -33 -16 10 -111 16 -111 7 0 -4 5 -12 12
-19 9 -9 7 -13 -5 -18 -9 -3 -24 -4 -32 0 -20 7 -58 70 -45 74 19 7 11 54 -10
59 -41 11 -18 24 38 22 81 -2 82 -2 82 24 0 46 33 49 38 4z m808 -287 c41 0
59 -5 74 -20 25 -25 26 -55 1 -77 -19 -16 -19 -17 5 -35 15 -12 24 -30 24 -46
0 -57 -33 -72 -147 -71 -48 1 -80 3 -70 6 15 4 17 18 17 119 0 84 -3 114 -12
115 -7 0 -4 4 7 9 11 5 26 7 33 4 8 -2 38 -4 68 -4z m-577 -37 c5 -21 15 -58
22 -83 l12 -45 21 83 20 82 45 0 46 0 -3 -117 c-2 -88 0 -118 10 -124 8 -5
-14 -8 -52 -8 -36 0 -59 3 -52 6 8 3 12 31 11 96 l-1 92 -15 -60 c-31 -133
-32 -135 -58 -135 -21 0 -27 8 -41 58 -9 31 -22 77 -29 102 l-14 45 0 -97 c-1
-68 3 -98 12 -101 6 -3 -1 -5 -18 -5 -16 0 -24 2 -17 5 8 3 12 37 12 118 0 81
-4 115 -12 118 -7 3 10 6 39 6 52 1 52 1 62 -36z m379 -49 c27 -19 29 -50 3
-64 -15 -7 -23 -6 -35 6 -19 19 -20 31 -3 37 9 3 9 8 1 16 -20 22 -35 -13 -32
-75 2 -42 8 -60 21 -68 15 -9 22 -6 43 19 13 17 24 25 24 19 0 -7 -9 -22 -19
-35 -28 -35 -95 -33 -127 4 -70 81 36 203 124 141z m22 -302 l0 -89 -49 -2
c-41 -1 -52 3 -65 21 -23 32 -20 61 9 88 18 17 31 21 55 17 28 -6 30 -5 30 23
0 17 5 30 10 30 6 0 10 -36 10 -88z"/>
</g>
</svg>
