<?xml version="1.0" standalone="no"?>
<!DOCTYPE svg PUBLIC "-//W3C//DTD SVG 20010904//EN"
 "http://www.w3.org/TR/2001/REC-SVG-20010904/DTD/svg10.dtd">
<svg version="1.0" xmlns="http://www.w3.org/2000/svg"
 width="500.000000pt" height="500.000000pt" viewBox="0 0 500.000000 500.000000"
 preserveAspectRatio="xMidYMid meet">
<metadata>
Created by potrace 1.15, written by Peter Selinger 2001-2017
</metadata>
<g transform="translate(0.000000,500.000000) scale(0.100000,-0.100000)"
fill="#000000" stroke="none">
<path d="M2490 3701 c0 -7 25 -11 73 -12 53 0 66 -3 50 -9 -37 -15 -27 -17 36
-8 48 7 66 6 88 -6 24 -13 25 -15 8 -16 -12 0 -26 5 -33 12 -8 8 -15 8 -25 0
-7 -6 -39 -13 -70 -16 -31 -2 -61 -7 -66 -10 -5 -4 -36 -9 -68 -12 -32 -3 -65
-7 -73 -10 -8 -3 -60 -8 -115 -11 -55 -3 -105 -9 -112 -15 -6 -5 -23 -6 -37
-2 -16 4 -26 2 -26 -5 0 -6 -16 -11 -36 -11 -31 0 -35 -3 -32 -22 3 -20 8 -21
76 -19 60 2 72 0 72 -14 0 -13 8 -15 53 -9 28 4 58 11 65 17 8 7 12 5 12 -6 0
-9 -10 -19 -22 -23 -21 -7 -20 -8 12 -15 19 -4 46 -5 60 -3 61 13 119 36 124
50 6 15 75 20 92 5 5 -4 67 -5 137 -2 85 4 141 2 165 -5 l37 -12 -32 -1 c-17
-1 -35 -5 -38 -11 -3 -5 -17 -10 -31 -10 -13 0 -24 -4 -24 -8 0 -4 30 -3 68 3
51 9 68 9 70 0 4 -16 47 -7 65 14 8 9 18 37 21 62 l7 46 -43 15 c-131 47 -260
74 -410 84 -71 5 -98 4 -98 -5z"/>
<path d="M1510 3590 c23 -15 92 -33 123 -31 15 1 41 -5 57 -14 40 -21 293 -27
285 -7 -3 8 -5 18 -5 23 0 5 -55 9 -122 10 -68 0 -145 5 -173 11 -76 15 -183
21 -165 8z"/>
<path d="M3375 3515 c-33 -14 -66 -48 -89 -94 -20 -38 -20 -57 -1 -65 8 -3 23
-19 34 -37 l19 -31 15 23 c9 13 19 42 22 64 4 22 15 59 26 82 30 66 24 80 -26
58z"/>
<path d="M2521 3375 c-208 -59 -339 -258 -304 -462 11 -62 66 -193 81 -193 4
0 12 8 19 18 9 15 5 31 -20 83 -29 57 -32 72 -32 154 0 77 4 98 27 147 37 79
98 142 177 181 59 29 74 32 156 32 76 0 99 -4 145 -26 65 -30 113 -69 150
-121 l27 -37 13 24 c11 20 10 28 -10 55 -34 48 -113 106 -177 130 -75 28 -182
35 -252 15z"/>
<path d="M2533 3281 c-90 -31 -145 -77 -187 -159 -13 -25 -22 -32 -36 -27 -15
5 -17 2 -13 -14 3 -12 8 -19 12 -17 3 2 6 -32 6 -77 0 -100 24 -160 92 -229
110 -112 271 -127 405 -38 52 35 102 103 120 164 16 56 15 165 -2 176 -7 4
-10 12 -7 17 9 14 -17 82 -38 97 -12 8 -15 18 -10 27 5 8 5 11 1 7 -5 -4 -31
9 -58 27 -92 64 -189 79 -285 46z"/>
<path d="M2976 3125 c17 -210 16 -219 -5 -275 -30 -80 -106 -161 -189 -202
-60 -30 -75 -33 -157 -33 -73 0 -100 5 -142 24 -48 21 -54 22 -74 7 -22 -15
-22 -16 37 -42 86 -38 168 -50 246 -36 89 17 179 64 229 120 79 89 132 240 95
271 -18 15 -22 41 -6 41 5 0 7 -6 4 -14 -3 -7 2 -16 10 -19 19 -7 19 -2 5 79
-8 46 -15 63 -29 67 -11 3 -20 17 -23 33 -3 16 -3 7 -1 -21z"/>
<path d="M3322 3107 c-36 -12 -36 -25 0 -85 11 -18 18 -36 14 -39 -3 -3 -44 6
-91 21 -54 17 -90 24 -100 19 -11 -7 12 -21 86 -56 55 -26 104 -47 107 -47 10
1 42 68 42 88 0 10 -5 23 -12 30 -6 6 -11 27 -10 47 1 19 0 34 -1 34 -1 -1
-17 -7 -35 -12z"/>
<path d="M3098 2974 c5 -9 7 -78 4 -155 l-4 -139 41 0 41 0 1 -132 c1 -159 -2
-302 -5 -305 -1 -1 -34 -3 -74 -4 -68 -2 -98 -14 -49 -21 16 -2 22 -10 22 -28
0 -21 -5 -25 -30 -25 -26 0 -30 5 -38 38 -5 22 -15 37 -24 37 -8 0 -11 -4 -8
-10 3 -5 3 -25 0 -44 -5 -26 -11 -33 -25 -29 -14 4 -20 -3 -25 -26 -14 -64
-35 -24 -35 68 l0 53 -42 -6 c-24 -4 -71 -7 -105 -7 -47 -1 -63 -5 -63 -15 0
-8 -4 -14 -10 -14 -5 0 -10 -11 -10 -25 0 -21 -5 -25 -30 -25 -16 0 -30 5 -30
11 0 7 -7 8 -17 4 -51 -20 -105 -33 -94 -22 6 6 11 24 11 39 0 23 4 28 26 28
17 0 28 -6 31 -19 6 -22 26 -18 54 10 25 25 8 29 -122 29 l-109 0 1 -32 1 -33
9 27 c9 22 14 25 37 19 20 -6 27 -14 27 -32 0 -20 -5 -24 -32 -24 -24 0 -29
-3 -21 -12 6 -8 20 -10 34 -7 15 4 24 2 24 -5 0 -6 -6 -11 -14 -11 -17 0 -49
-30 -41 -38 3 -3 12 3 20 14 13 17 14 17 15 2 0 -10 -8 -23 -18 -29 -12 -8
-17 -20 -14 -35 4 -24 28 -39 37 -24 4 6 1 10 -4 10 -6 0 -3 9 6 19 14 17 19
18 55 5 39 -14 41 -14 58 -14 6 0 10 -5 10 -11 0 -6 -7 -9 -15 -5 -18 7 -20
-5 -3 -22 16 -16 46 -15 44 1 0 6 4 12 9 12 6 0 9 -4 7 -8 -1 -4 6 -4 15 2 10
5 21 9 26 10 4 1 6 4 5 8 -2 5 -6 7 -10 6 -8 -3 -5 18 6 36 7 10 3 12 -15 7
-22 -6 -22 -6 -5 5 16 10 21 9 31 -4 7 -10 24 -15 41 -14 17 1 29 -3 30 -10 3
-27 5 -27 19 -9 13 17 15 17 20 3 3 -10 8 -25 11 -34 11 -33 3 -267 -9 -275
-7 -4 24 -8 68 -8 81 0 120 12 138 41 15 25 0 67 -31 83 -15 9 -21 15 -15 16
7 0 20 11 28 24 21 31 5 73 -30 82 -18 4 -25 13 -25 30 0 27 0 27 35 14 20 -8
24 -7 19 2 -12 18 -16 78 -6 78 30 0 72 -24 72 -41 0 -10 5 -19 10 -19 6 0 10
11 10 25 0 19 4 23 18 19 12 -4 13 -3 4 3 -15 11 -6 43 13 43 7 0 23 -8 36
-18 13 -10 43 -29 66 -42 34 -19 43 -30 54 -69 12 -44 34 -81 49 -81 12 0 18
48 7 59 -5 5 -15 7 -22 4 -9 -3 -16 9 -20 40 -10 67 -4 92 23 91 20 -1 22 3
17 28 -7 30 0 33 43 22 12 -4 22 -13 22 -20 0 -8 4 -14 8 -14 11 0 2 59 -10
66 -5 3 1 17 13 30 21 22 16 34 -6 16 -6 -4 -40 -6 -77 -4 -51 3 -68 7 -70 19
-2 9 -2 108 0 220 l3 203 57 0 c36 0 52 3 43 9 -10 7 -12 21 -7 55 l7 46 -39
0 c-38 0 -40 2 -53 45 -7 25 -19 45 -27 45 -22 0 -72 30 -72 43 0 19 -24 67
-33 67 -4 0 -4 -7 1 -16z"/>
<path d="M1916 2926 c3 -9 2 -16 -3 -16 -4 0 -14 -9 -21 -21 -17 -27 0 -49 38
-49 23 0 28 -4 28 -25 0 -22 -5 -25 -42 -26 -22 -1 -45 -1 -50 0 -5 1 -6 -5
-3 -14 4 -8 2 -15 -3 -15 -6 0 -10 7 -10 15 0 13 -12 15 -72 13 -46 -2 -73 -7
-76 -15 -2 -7 3 -13 12 -13 8 0 17 -4 20 -9 8 -13 -19 -62 -29 -53 -5 4 -5 2
-2 -5 5 -7 50 -12 135 -12 104 -1 129 1 129 12 0 8 -5 14 -11 14 -60 -1 -76 4
-76 24 0 11 7 27 15 36 14 14 18 14 35 -2 17 -15 19 -15 29 2 6 10 11 14 11 8
0 -5 5 -3 10 5 14 22 12 56 -4 69 -8 7 -12 22 -9 34 4 19 2 18 -15 -6 -16 -24
-20 -26 -26 -12 -3 9 -2 25 4 35 7 13 5 21 -5 30 -13 11 -14 10 -9 -4z"/>
<path d="M2135 2828 c7 -17 -14 -30 -54 -34 -19 -3 -22 1 -18 19 l6 22 -19
-22 c-10 -13 -23 -23 -29 -23 -6 0 -11 -5 -11 -11 0 -5 -6 -7 -12 -3 -9 5 -10
4 -3 -4 6 -5 19 -12 30 -14 22 -4 23 -37 2 -50 -8 -5 -7 -8 3 -8 12 0 12 -2 2
-9 -11 -6 -10 -10 3 -15 10 -3 15 -12 11 -21 -3 -8 0 -15 6 -15 7 0 7 -4 0
-13 -14 -17 -11 -229 3 -239 19 -14 25 -8 25 23 0 17 -4 28 -10 24 -5 -3 -10
-1 -10 4 0 6 6 11 13 11 9 0 9 2 0 8 -7 4 -10 19 -8 32 6 28 14 121 15 163 0
27 1 28 52 25 43 -2 55 -7 64 -26 8 -16 14 -20 19 -12 4 7 -2 18 -14 26 -21
15 -42 75 -43 125 -1 16 -7 34 -15 40 -10 9 -12 9 -8 -3z"/>
<path d="M3372 2561 c2 -48 5 -58 18 -53 12 4 11 1 -2 -15 -23 -26 -23 -40 2
-53 13 -7 20 -7 20 -1 0 6 12 8 28 5 19 -4 34 0 45 11 22 21 21 32 0 44 -15 8
-16 13 -5 30 15 25 16 51 2 51 -5 0 -10 -4 -10 -10 0 -5 -5 -10 -11 -10 -6 0
-9 7 -5 15 8 21 0 19 -23 -6 l-19 -21 -7 30 c-3 17 -13 33 -21 36 -12 5 -14
-5 -12 -53z"/>
<path d="M1636 2536 c-9 -11 -13 -28 -10 -38 4 -13 0 -18 -13 -18 -17 -1 -17
-2 1 -15 11 -8 17 -18 13 -21 -3 -3 -16 4 -29 17 -26 26 -63 27 -72 2 -4 -9
-3 -19 0 -22 4 -3 9 -1 11 6 3 8 10 7 22 -5 14 -14 15 -23 7 -49 -5 -18 -13
-33 -18 -33 -5 0 -6 -9 -3 -20 3 -11 2 -20 -4 -20 -5 0 -11 7 -13 16 -3 14 -6
13 -25 -4 -27 -23 -30 -46 -5 -38 21 7 49 -8 33 -18 -13 -8 -15 -56 -3 -56 4
0 13 5 19 11 8 8 16 8 30 0 16 -9 14 -11 -14 -17 -41 -8 -66 -34 -34 -34 11 0
21 5 21 10 0 6 5 10 10 10 6 0 10 -9 10 -20 0 -11 5 -20 11 -20 5 0 8 -4 5 -9
-3 -5 -15 -7 -26 -4 -11 3 -20 1 -20 -5 0 -14 48 -12 78 4 22 11 27 11 37 -3
13 -18 40 -8 28 10 -4 6 -8 22 -9 35 -3 22 -1 23 14 9 9 -8 26 -17 37 -20 19
-5 19 -5 -2 -12 -13 -4 -23 -13 -23 -20 0 -7 -12 -20 -26 -30 -14 -9 -23 -23
-20 -30 2 -7 -2 -19 -10 -25 -33 -28 0 -85 36 -62 15 9 21 7 34 -13 9 -14 23
-25 31 -25 17 0 20 16 5 25 -16 10 -11 25 6 18 12 -4 15 -2 12 8 -3 8 -13 13
-23 12 -9 0 -13 3 -9 7 5 5 27 10 49 12 32 2 42 8 53 31 11 23 18 28 38 23 14
-4 24 -2 24 4 0 5 9 10 20 10 23 0 24 4 10 31 -6 10 -20 19 -30 19 -16 0 -20
7 -20 30 0 17 5 30 10 30 6 0 10 5 10 10 0 6 -40 10 -100 10 l-100 0 0 160 0
160 -24 -2 c-13 -1 -31 -11 -40 -22z"/>
<path d="M2178 2244 c-12 -4 -18 -15 -18 -34 0 -16 -4 -32 -10 -35 -5 -3 -10
-15 -10 -26 0 -17 8 -19 88 -19 48 0 102 -4 121 -10 44 -12 55 -4 31 20 -13
13 -20 34 -20 60 0 40 0 40 -39 40 -21 0 -58 2 -82 4 -24 3 -52 2 -61 0z"/>
<path d="M2218 1863 c2 -88 0 -118 -10 -124 -8 -6 -3 -8 17 -8 17 0 24 3 18 6
-9 3 -13 34 -12 106 l0 102 19 -65 c10 -36 23 -84 29 -107 10 -35 16 -43 36
-43 21 0 25 8 48 103 l26 102 0 -97 c1 -68 -3 -98 -11 -101 -7 -3 14 -6 47 -6
36 0 55 3 47 8 -10 6 -12 36 -10 124 l3 117 -40 0 -40 0 -20 -88 -20 -87 -24
88 -24 87 -41 0 -41 0 3 -117z"/>
</g>
</svg>
